<?xml version="1.0" encoding="iso-8859-1"?>
<!-- Generator: Adobe Illustrator 18.0.0, SVG Export Plug-In . SVG Version: 6.00 Build 0)  -->
<!DOCTYPE svg PUBLIC "-//W3C//DTD SVG 1.1//EN" "http://www.w3.org/Graphics/SVG/1.1/DTD/svg11.dtd">
<svg width="70px" height="70px" xmlns="http://www.w3.org/2000/svg" xmlns:xlink="http://www.w3.org/1999/xlink" version="1.1" id="Capa_1" x="0px" y="0px" viewBox="0 0 297 297" style="enable-background:new 0 0 297 297;" xml:space="preserve">
<g>
	<path d="M50.437,242.201c-2.625,0-5.2,1.067-7.057,2.924c-1.857,1.857-2.925,4.433-2.925,7.058s1.067,5.2,2.925,7.057   c1.856,1.856,4.432,2.925,7.057,2.925c2.635,0,5.2-1.068,7.057-2.925c1.866-1.857,2.925-4.432,2.925-7.057s-1.059-5.2-2.925-7.058   C55.637,243.269,53.072,242.201,50.437,242.201z" fill="#D80027"/>
	<path d="M248.071,242.201c-2.625,0-5.2,1.067-7.058,2.924c-1.857,1.857-2.924,4.433-2.924,7.058s1.067,5.2,2.924,7.057   c1.857,1.856,4.433,2.925,7.058,2.925c2.635,0,5.2-1.068,7.057-2.925c1.866-1.857,2.925-4.432,2.925-7.057s-1.059-5.2-2.925-7.058   C253.271,243.269,250.696,242.201,248.071,242.201z" fill="#D80027"/>
	<path d="M264.54,97.47c2.625,0,5.2-1.068,7.056-2.926c1.867-1.855,2.926-4.431,2.926-7.056s-1.059-5.201-2.926-7.058   c-1.855-1.856-4.421-2.924-7.056-2.924c-2.625,0-5.2,1.067-7.058,2.924c-1.856,1.856-2.924,4.433-2.924,7.058   s1.067,5.2,2.924,7.056C259.34,96.401,261.915,97.47,264.54,97.47z" fill="#D80027"/>
	<path d="M83.376,31.592c2.635,0,5.2-1.068,7.056-2.926c1.867-1.855,2.926-4.431,2.926-7.056s-1.059-5.2-2.926-7.058   c-1.855-1.856-4.421-2.924-7.056-2.924c-2.625,0-5.201,1.067-7.058,2.924c-1.856,1.858-2.925,4.433-2.925,7.058   s1.068,5.2,2.925,7.056C78.175,30.523,80.751,31.592,83.376,31.592z" fill="#D80027"/>
	<path d="M33.967,97.47c2.635,0,5.2-1.068,7.057-2.926c1.866-1.855,2.925-4.431,2.925-7.056s-1.059-5.201-2.925-7.058   c-1.856-1.856-4.422-2.924-7.057-2.924c-2.625,0-5.2,1.067-7.057,2.924c-1.857,1.856-2.925,4.433-2.925,7.058   s1.067,5.2,2.925,7.056C28.767,96.401,31.342,97.47,33.967,97.47z" fill="#D80027"/>
	<path d="M215.132,31.592c2.625,0,5.2-1.068,7.056-2.926c1.867-1.855,2.926-4.431,2.926-7.056s-1.059-5.2-2.926-7.058   c-1.855-1.856-4.431-2.924-7.056-2.924s-5.201,1.067-7.058,2.924c-1.856,1.858-2.925,4.433-2.925,7.058s1.068,5.2,2.925,7.056   C209.931,30.523,212.507,31.592,215.132,31.592z" fill="#D80027"/>
	<path d="M159.177,276.492c7.731-37.629,35.497-54.604,45.919-60.094l-0.622,3.67c-0.636,3.751,0.916,7.537,4.001,9.764   c3.087,2.226,7.171,2.503,10.527,0.716l23.081-12.278l23.085,12.279c1.472,0.783,3.082,1.169,4.686,1.169   c2.058,0,4.106-0.636,5.841-1.886c3.085-2.227,4.637-6.013,4.001-9.765l-4.437-26.165l18.768-18.509   c2.695-2.659,3.654-6.614,2.477-10.212c-1.178-3.598-4.289-6.22-8.035-6.771l-25.838-3.798l-11.576-23.736   c-1.673-3.43-5.155-5.606-8.973-5.606c-3.815,0-7.298,2.177-8.971,5.607l-11.573,23.735l-25.839,3.797   c-3.745,0.55-6.857,3.173-8.034,6.771c-1.178,3.598-0.219,7.553,2.477,10.212l18.529,18.273c-8.84,2.057-25.318,8.915-43.8,31.574   l9.362-84.263l7.377,3.895c1.465,0.773,3.066,1.155,4.66,1.155c2.065,0,4.121-0.641,5.857-1.899   c3.078-2.23,4.622-6.015,3.983-9.763l-6.19-36.248l26.213-25.665c2.711-2.655,3.683-6.616,2.507-10.224   c-1.176-3.608-4.295-6.238-8.05-6.785l-36.185-5.279l-16.19-32.957c-1.679-3.416-5.154-5.58-8.959-5.58   c-3.807,0-7.281,2.164-8.959,5.58l-16.189,32.957l-36.185,5.279c-3.755,0.547-6.874,3.176-8.05,6.784   c-1.176,3.607-0.203,7.569,2.508,10.224l26.21,25.666l-6.19,36.248c-0.64,3.747,0.904,7.533,3.982,9.763   c3.078,2.229,7.154,2.518,10.518,0.744l7.378-3.896l9.362,84.264c-19.385-23.767-36.565-30.149-45.04-31.843l18.256-18.005   c2.695-2.659,3.654-6.614,2.477-10.212c-1.177-3.598-4.288-6.22-8.034-6.771l-25.838-3.798l-11.576-23.736   c-1.674-3.43-5.156-5.606-8.973-5.606s-7.299,2.177-8.971,5.607L34.37,154.614l-25.839,3.797c-3.745,0.55-6.857,3.173-8.035,6.771   c-1.178,3.598-0.219,7.553,2.477,10.212l18.767,18.509l-4.435,26.166c-0.636,3.751,0.916,7.537,4.001,9.764   c3.087,2.226,7.171,2.503,10.527,0.716l23.082-12.278l23.084,12.279c1.472,0.783,3.082,1.169,4.687,1.169   c2.058,0,4.106-0.636,5.841-1.886c3.085-2.227,4.637-6.013,4.001-9.765l-0.763-4.5c10.206,4.878,39.416,21.23,47.572,60.925   c1.024,4.982,4.834,8.879,9.921,8.879C154.343,285.371,158.154,281.475,159.177,276.492z M70.372,183.339   c-2.318,2.288-3.376,5.563-2.831,8.775l1.911,11.277l-9.85-5.24c-1.466-0.779-3.077-1.169-4.688-1.169   c-1.611,0-3.223,0.39-4.688,1.17l-9.848,5.238l1.912-11.277c0.543-3.212-0.514-6.486-2.832-8.774l-8.203-8.09l11.229-1.65   c3.262-0.478,6.076-2.537,7.521-5.5l4.911-10.072l4.912,10.073c1.445,2.962,4.26,5.021,7.52,5.499l11.227,1.65L70.372,183.339z    M110.748,72.289l21.444-3.129c3.256-0.475,6.067-2.523,7.518-5.476l9.547-19.436l9.548,19.436   c1.451,2.952,4.263,5.001,7.519,5.476l21.443,3.129l-15.548,15.225c-2.341,2.291-3.407,5.584-2.856,8.813l3.662,21.438   l-19.106-10.09c-2.917-1.54-6.406-1.54-9.323,0l-19.106,10.09l3.661-21.438c0.551-3.229-0.516-6.521-2.856-8.812L110.748,72.289z    M149.257,127.788l6.005,3.171l-6.005,54.045l-6.006-54.045L149.257,127.788z M257.541,183.339   c-2.319,2.288-3.376,5.563-2.832,8.775l1.912,11.277l-9.851-5.24c-1.465-0.779-3.076-1.169-4.688-1.169s-3.223,0.39-4.688,1.17   l-9.848,5.238l1.911-11.277c0.544-3.212-0.513-6.486-2.831-8.774l-8.203-8.09l11.229-1.65c3.262-0.478,6.075-2.537,7.521-5.5   l4.91-10.072l4.913,10.073c1.445,2.962,4.26,5.021,7.521,5.499l11.226,1.65L257.541,183.339z" fill="#D80027"/>
</g>
<g>
</g>
<g>
</g>
<g>
</g>
<g>
</g>
<g>
</g>
<g>
</g>
<g>
</g>
<g>
</g>
<g>
</g>
<g>
</g>
<g>
</g>
<g>
</g>
<g>
</g>
<g>
</g>
<g>
</g>
</svg>
